<mxfile host="app.diagrams.net" agent="Mozilla/5.0 (Windows NT 10.0; Win64; x64) AppleWebKit/537.36 (KHTML, like Gecko) Chrome/128.0.0.0 Safari/537.36 Edg/128.0.0.0" version="24.7.12">
  <diagram name="Page-1" id="JsbB5GCttgFuHJn9tnkG">
    <mxGraphModel dx="1426" dy="795" grid="1" gridSize="10" guides="1" tooltips="1" connect="1" arrows="1" fold="1" page="1" pageScale="1" pageWidth="850" pageHeight="1100" math="0" shadow="0">
      <root>
        <mxCell id="0" />
        <mxCell id="1" parent="0" />
        <mxCell id="qajsR4yT6m4AcT7WIOXy-24" style="edgeStyle=orthogonalEdgeStyle;rounded=0;orthogonalLoop=1;jettySize=auto;html=1;entryX=0;entryY=0.5;entryDx=0;entryDy=0;" edge="1" parent="1" source="qajsR4yT6m4AcT7WIOXy-1" target="qajsR4yT6m4AcT7WIOXy-8">
          <mxGeometry relative="1" as="geometry" />
        </mxCell>
        <mxCell id="qajsR4yT6m4AcT7WIOXy-1" value="Admin" style="shape=umlActor;verticalLabelPosition=bottom;verticalAlign=top;html=1;outlineConnect=0;" vertex="1" parent="1">
          <mxGeometry x="100" y="270" width="30" height="60" as="geometry" />
        </mxCell>
        <mxCell id="qajsR4yT6m4AcT7WIOXy-4" value="" style="whiteSpace=wrap;html=1;aspect=fixed;" vertex="1" parent="1">
          <mxGeometry x="205" y="80" width="440" height="440" as="geometry" />
        </mxCell>
        <mxCell id="qajsR4yT6m4AcT7WIOXy-8" value="Add" style="ellipse;whiteSpace=wrap;html=1;" vertex="1" parent="1">
          <mxGeometry x="230" y="140" width="70" height="40" as="geometry" />
        </mxCell>
        <mxCell id="qajsR4yT6m4AcT7WIOXy-10" value="Edit" style="ellipse;whiteSpace=wrap;html=1;" vertex="1" parent="1">
          <mxGeometry x="230" y="190" width="70" height="40" as="geometry" />
        </mxCell>
        <mxCell id="qajsR4yT6m4AcT7WIOXy-19" style="edgeStyle=orthogonalEdgeStyle;rounded=0;orthogonalLoop=1;jettySize=auto;html=1;exitX=1;exitY=0.5;exitDx=0;exitDy=0;" edge="1" parent="1" source="qajsR4yT6m4AcT7WIOXy-11" target="qajsR4yT6m4AcT7WIOXy-18">
          <mxGeometry relative="1" as="geometry" />
        </mxCell>
        <mxCell id="qajsR4yT6m4AcT7WIOXy-20" style="edgeStyle=orthogonalEdgeStyle;rounded=0;orthogonalLoop=1;jettySize=auto;html=1;" edge="1" parent="1" source="qajsR4yT6m4AcT7WIOXy-11" target="qajsR4yT6m4AcT7WIOXy-17">
          <mxGeometry relative="1" as="geometry" />
        </mxCell>
        <mxCell id="qajsR4yT6m4AcT7WIOXy-11" value="View list" style="ellipse;whiteSpace=wrap;html=1;" vertex="1" parent="1">
          <mxGeometry x="230" y="250" width="70" height="40" as="geometry" />
        </mxCell>
        <mxCell id="qajsR4yT6m4AcT7WIOXy-21" style="edgeStyle=orthogonalEdgeStyle;rounded=0;orthogonalLoop=1;jettySize=auto;html=1;" edge="1" parent="1" source="qajsR4yT6m4AcT7WIOXy-12" target="qajsR4yT6m4AcT7WIOXy-18">
          <mxGeometry relative="1" as="geometry">
            <Array as="points">
              <mxPoint x="725" y="330" />
            </Array>
          </mxGeometry>
        </mxCell>
        <mxCell id="qajsR4yT6m4AcT7WIOXy-22" style="edgeStyle=orthogonalEdgeStyle;rounded=0;orthogonalLoop=1;jettySize=auto;html=1;" edge="1" parent="1" source="qajsR4yT6m4AcT7WIOXy-12" target="qajsR4yT6m4AcT7WIOXy-17">
          <mxGeometry relative="1" as="geometry" />
        </mxCell>
        <mxCell id="qajsR4yT6m4AcT7WIOXy-12" value="View detail" style="ellipse;whiteSpace=wrap;html=1;" vertex="1" parent="1">
          <mxGeometry x="230" y="310" width="70" height="40" as="geometry" />
        </mxCell>
        <mxCell id="qajsR4yT6m4AcT7WIOXy-15" value="Search" style="ellipse;whiteSpace=wrap;html=1;" vertex="1" parent="1">
          <mxGeometry x="230" y="430" width="70" height="40" as="geometry" />
        </mxCell>
        <mxCell id="qajsR4yT6m4AcT7WIOXy-16" value="Delete" style="ellipse;whiteSpace=wrap;html=1;" vertex="1" parent="1">
          <mxGeometry x="230" y="370" width="70" height="40" as="geometry" />
        </mxCell>
        <mxCell id="qajsR4yT6m4AcT7WIOXy-17" value="Student" style="shape=umlActor;verticalLabelPosition=bottom;verticalAlign=top;html=1;outlineConnect=0;" vertex="1" parent="1">
          <mxGeometry x="710" y="350" width="30" height="60" as="geometry" />
        </mxCell>
        <mxCell id="qajsR4yT6m4AcT7WIOXy-18" value="Teacher" style="shape=umlActor;verticalLabelPosition=bottom;verticalAlign=top;html=1;outlineConnect=0;" vertex="1" parent="1">
          <mxGeometry x="710" y="160" width="30" height="60" as="geometry" />
        </mxCell>
        <mxCell id="qajsR4yT6m4AcT7WIOXy-25" style="edgeStyle=orthogonalEdgeStyle;rounded=0;orthogonalLoop=1;jettySize=auto;html=1;entryX=0.25;entryY=0.1;entryDx=0;entryDy=0;entryPerimeter=0;" edge="1" parent="1" source="qajsR4yT6m4AcT7WIOXy-10" target="qajsR4yT6m4AcT7WIOXy-1">
          <mxGeometry relative="1" as="geometry" />
        </mxCell>
      </root>
    </mxGraphModel>
  </diagram>
</mxfile>
